<mxfile host="app.diagrams.net" agent="Mozilla/5.0 (Windows NT 10.0; Win64; x64; rv:128.0) Gecko/20100101 Firefox/128.0" version="25.0.3">
  <diagram name="Page-1" id="2uYtN08KcA85D1zPBKux">
    <mxGraphModel dx="1006" dy="416" grid="1" gridSize="10" guides="1" tooltips="1" connect="1" arrows="1" fold="1" page="1" pageScale="1" pageWidth="850" pageHeight="1100" math="0" shadow="0">
      <root>
        <mxCell id="0" />
        <mxCell id="1" parent="0" />
        <mxCell id="xfdFbjQ47RM0yjO0aCuq-2" style="edgeStyle=orthogonalEdgeStyle;rounded=0;orthogonalLoop=1;jettySize=auto;html=1;exitX=0.5;exitY=1;exitDx=0;exitDy=0;entryX=0;entryY=0.5;entryDx=0;entryDy=0;" parent="1" source="xfdFbjQ47RM0yjO0aCuq-1" target="xfdFbjQ47RM0yjO0aCuq-3" edge="1">
          <mxGeometry relative="1" as="geometry">
            <mxPoint x="335.0000000000002" y="455.00285714285724" as="targetPoint" />
            <mxPoint x="10" y="220.0000000000001" as="sourcePoint" />
            <Array as="points">
              <mxPoint x="65" y="530" />
            </Array>
          </mxGeometry>
        </mxCell>
        <mxCell id="xfdFbjQ47RM0yjO0aCuq-1" value="&lt;font style=&quot;font-size: 18px;&quot;&gt;START&lt;/font&gt;" style="ellipse;whiteSpace=wrap;html=1;aspect=fixed;" parent="1" vertex="1">
          <mxGeometry x="30" y="30" width="70" height="70" as="geometry" />
        </mxCell>
        <mxCell id="xfdFbjQ47RM0yjO0aCuq-3" value="&lt;font style=&quot;font-size: 24px;&quot;&gt;Admin&lt;/font&gt;" style="rounded=1;whiteSpace=wrap;html=1;" parent="1" vertex="1">
          <mxGeometry x="160" y="500.0028571428571" width="120" height="60" as="geometry" />
        </mxCell>
        <mxCell id="xfdFbjQ47RM0yjO0aCuq-7" style="edgeStyle=orthogonalEdgeStyle;rounded=0;orthogonalLoop=1;jettySize=auto;html=1;exitX=0;exitY=0.5;exitDx=0;exitDy=0;entryX=0.5;entryY=1;entryDx=0;entryDy=0;" parent="1" source="xfdFbjQ47RM0yjO0aCuq-4" target="xfdFbjQ47RM0yjO0aCuq-1" edge="1">
          <mxGeometry relative="1" as="geometry" />
        </mxCell>
        <mxCell id="xfdFbjQ47RM0yjO0aCuq-4" value="&lt;font style=&quot;font-size: 24px;&quot;&gt;Doctor&lt;/font&gt;" style="rounded=1;whiteSpace=wrap;html=1;" parent="1" vertex="1">
          <mxGeometry x="160" y="350" width="120" height="60" as="geometry" />
        </mxCell>
        <mxCell id="xfdFbjQ47RM0yjO0aCuq-10" value="" style="edgeStyle=orthogonalEdgeStyle;rounded=0;orthogonalLoop=1;jettySize=auto;html=1;entryX=0.5;entryY=0;entryDx=0;entryDy=0;" parent="1" source="xfdFbjQ47RM0yjO0aCuq-5" target="xfdFbjQ47RM0yjO0aCuq-8" edge="1">
          <mxGeometry relative="1" as="geometry">
            <Array as="points">
              <mxPoint x="410" y="160" />
            </Array>
          </mxGeometry>
        </mxCell>
        <mxCell id="xfdFbjQ47RM0yjO0aCuq-5" value="&lt;font style=&quot;font-size: 24px;&quot;&gt;Patient&lt;/font&gt;" style="rounded=1;whiteSpace=wrap;html=1;" parent="1" vertex="1">
          <mxGeometry x="160" y="130" width="120" height="60" as="geometry" />
        </mxCell>
        <mxCell id="xfdFbjQ47RM0yjO0aCuq-6" value="" style="endArrow=none;html=1;rounded=0;entryX=0;entryY=0.5;entryDx=0;entryDy=0;exitX=0.5;exitY=1;exitDx=0;exitDy=0;" parent="1" source="xfdFbjQ47RM0yjO0aCuq-1" target="xfdFbjQ47RM0yjO0aCuq-5" edge="1">
          <mxGeometry width="50" height="50" relative="1" as="geometry">
            <mxPoint x="70" y="170" as="sourcePoint" />
            <mxPoint x="500" y="330" as="targetPoint" />
            <Array as="points">
              <mxPoint x="65" y="160" />
            </Array>
          </mxGeometry>
        </mxCell>
        <mxCell id="xfdFbjQ47RM0yjO0aCuq-19" value="" style="edgeStyle=orthogonalEdgeStyle;rounded=0;orthogonalLoop=1;jettySize=auto;html=1;exitX=0.5;exitY=1;exitDx=0;exitDy=0;" parent="1" source="xfdFbjQ47RM0yjO0aCuq-8" target="xfdFbjQ47RM0yjO0aCuq-18" edge="1">
          <mxGeometry relative="1" as="geometry">
            <Array as="points">
              <mxPoint x="410" y="310" />
            </Array>
          </mxGeometry>
        </mxCell>
        <mxCell id="xfdFbjQ47RM0yjO0aCuq-23" style="edgeStyle=orthogonalEdgeStyle;rounded=0;orthogonalLoop=1;jettySize=auto;html=1;exitX=0.5;exitY=1;exitDx=0;exitDy=0;entryX=0;entryY=0.5;entryDx=0;entryDy=0;" parent="1" source="xfdFbjQ47RM0yjO0aCuq-8" target="xfdFbjQ47RM0yjO0aCuq-21" edge="1">
          <mxGeometry relative="1" as="geometry" />
        </mxCell>
        <mxCell id="xfdFbjQ47RM0yjO0aCuq-8" value="&lt;font style=&quot;font-size: 18px;&quot;&gt;Dashboard&lt;/font&gt;" style="shape=parallelogram;perimeter=parallelogramPerimeter;whiteSpace=wrap;html=1;fixedSize=1;rounded=1;" parent="1" vertex="1">
          <mxGeometry x="350" y="190" width="120" height="60" as="geometry" />
        </mxCell>
        <mxCell id="xfdFbjQ47RM0yjO0aCuq-25" value="" style="edgeStyle=orthogonalEdgeStyle;rounded=0;orthogonalLoop=1;jettySize=auto;html=1;entryX=0;entryY=0.5;entryDx=0;entryDy=0;" parent="1" source="xfdFbjQ47RM0yjO0aCuq-11" target="xfdFbjQ47RM0yjO0aCuq-24" edge="1">
          <mxGeometry relative="1" as="geometry" />
        </mxCell>
        <mxCell id="xfdFbjQ47RM0yjO0aCuq-26" style="edgeStyle=orthogonalEdgeStyle;rounded=0;orthogonalLoop=1;jettySize=auto;html=1;exitX=0.5;exitY=1;exitDx=0;exitDy=0;entryX=0;entryY=0.5;entryDx=0;entryDy=0;" parent="1" source="xfdFbjQ47RM0yjO0aCuq-11" target="xfdFbjQ47RM0yjO0aCuq-27" edge="1">
          <mxGeometry relative="1" as="geometry">
            <mxPoint x="640" y="400" as="targetPoint" />
            <Array as="points">
              <mxPoint x="610" y="400" />
            </Array>
          </mxGeometry>
        </mxCell>
        <mxCell id="xfdFbjQ47RM0yjO0aCuq-11" value="&lt;font style=&quot;font-size: 18px;&quot;&gt;Profile&lt;/font&gt;" style="shape=parallelogram;perimeter=parallelogramPerimeter;whiteSpace=wrap;html=1;fixedSize=1;rounded=1;" parent="1" vertex="1">
          <mxGeometry x="550" y="190" width="120" height="60" as="geometry" />
        </mxCell>
        <mxCell id="xfdFbjQ47RM0yjO0aCuq-29" value="" style="edgeStyle=orthogonalEdgeStyle;rounded=0;orthogonalLoop=1;jettySize=auto;html=1;entryX=0;entryY=0.5;entryDx=0;entryDy=0;exitX=0.5;exitY=1;exitDx=0;exitDy=0;" parent="1" source="xfdFbjQ47RM0yjO0aCuq-12" target="xfdFbjQ47RM0yjO0aCuq-28" edge="1">
          <mxGeometry relative="1" as="geometry" />
        </mxCell>
        <mxCell id="xfdFbjQ47RM0yjO0aCuq-31" style="edgeStyle=orthogonalEdgeStyle;rounded=0;orthogonalLoop=1;jettySize=auto;html=1;entryX=0;entryY=0.5;entryDx=0;entryDy=0;" parent="1" source="xfdFbjQ47RM0yjO0aCuq-12" target="xfdFbjQ47RM0yjO0aCuq-30" edge="1">
          <mxGeometry relative="1" as="geometry" />
        </mxCell>
        <mxCell id="xfdFbjQ47RM0yjO0aCuq-12" value="&lt;font style=&quot;font-size: 18px;&quot;&gt;Appointments&lt;/font&gt;" style="shape=parallelogram;perimeter=parallelogramPerimeter;whiteSpace=wrap;html=1;fixedSize=1;rounded=1;" parent="1" vertex="1">
          <mxGeometry x="730" y="200" width="140" height="60" as="geometry" />
        </mxCell>
        <mxCell id="xfdFbjQ47RM0yjO0aCuq-13" value="&lt;font style=&quot;font-size: 18px;&quot;&gt;Medical Records&lt;br&gt;&lt;/font&gt;" style="shape=parallelogram;perimeter=parallelogramPerimeter;whiteSpace=wrap;html=1;fixedSize=1;rounded=1;" parent="1" vertex="1">
          <mxGeometry x="960" y="190" width="180" height="60" as="geometry" />
        </mxCell>
        <mxCell id="xfdFbjQ47RM0yjO0aCuq-14" value="" style="endArrow=none;html=1;rounded=0;exitX=0.5;exitY=0;exitDx=0;exitDy=0;entryX=1;entryY=0.5;entryDx=0;entryDy=0;" parent="1" source="xfdFbjQ47RM0yjO0aCuq-11" target="xfdFbjQ47RM0yjO0aCuq-5" edge="1">
          <mxGeometry width="50" height="50" relative="1" as="geometry">
            <mxPoint x="550" y="170" as="sourcePoint" />
            <mxPoint x="600" y="120" as="targetPoint" />
            <Array as="points">
              <mxPoint x="610" y="160" />
            </Array>
          </mxGeometry>
        </mxCell>
        <mxCell id="xfdFbjQ47RM0yjO0aCuq-16" value="" style="endArrow=none;html=1;rounded=0;exitX=0.5;exitY=0;exitDx=0;exitDy=0;" parent="1" source="xfdFbjQ47RM0yjO0aCuq-12" edge="1">
          <mxGeometry width="50" height="50" relative="1" as="geometry">
            <mxPoint x="550" y="170" as="sourcePoint" />
            <mxPoint x="300" y="160" as="targetPoint" />
            <Array as="points">
              <mxPoint x="800" y="160" />
            </Array>
          </mxGeometry>
        </mxCell>
        <mxCell id="xfdFbjQ47RM0yjO0aCuq-17" value="" style="endArrow=none;html=1;rounded=0;exitX=0.5;exitY=0;exitDx=0;exitDy=0;entryX=1;entryY=0.5;entryDx=0;entryDy=0;" parent="1" source="xfdFbjQ47RM0yjO0aCuq-13" target="xfdFbjQ47RM0yjO0aCuq-5" edge="1">
          <mxGeometry width="50" height="50" relative="1" as="geometry">
            <mxPoint x="550" y="170" as="sourcePoint" />
            <mxPoint x="290" y="150" as="targetPoint" />
            <Array as="points">
              <mxPoint x="1050" y="160" />
              <mxPoint x="620" y="160" />
            </Array>
          </mxGeometry>
        </mxCell>
        <mxCell id="xfdFbjQ47RM0yjO0aCuq-18" value="&lt;font style=&quot;font-size: 14px;&quot;&gt;Overview of appointments&lt;br&gt;&lt;/font&gt;" style="shape=process;whiteSpace=wrap;html=1;backgroundOutline=1;rounded=1;" parent="1" vertex="1">
          <mxGeometry x="440" y="280" width="120" height="60" as="geometry" />
        </mxCell>
        <mxCell id="xfdFbjQ47RM0yjO0aCuq-21" value="&lt;font style=&quot;font-size: 14px;&quot;&gt;Medical History&lt;/font&gt;" style="shape=process;whiteSpace=wrap;html=1;backgroundOutline=1;rounded=1;" parent="1" vertex="1">
          <mxGeometry x="440" y="360" width="120" height="60" as="geometry" />
        </mxCell>
        <mxCell id="xfdFbjQ47RM0yjO0aCuq-24" value="&lt;font style=&quot;font-size: 18px;&quot;&gt;&lt;font style=&quot;font-size: 14px;&quot;&gt;Personal Information&lt;/font&gt;&lt;br&gt;&lt;/font&gt;" style="shape=process;whiteSpace=wrap;html=1;backgroundOutline=1;rounded=1;" parent="1" vertex="1">
          <mxGeometry x="640" y="290" width="120" height="60" as="geometry" />
        </mxCell>
        <mxCell id="xfdFbjQ47RM0yjO0aCuq-27" value="&lt;font style=&quot;font-size: 14px;&quot;&gt;Medical History and Documents&lt;font&gt;&lt;br&gt;&lt;/font&gt;&lt;/font&gt;" style="shape=process;whiteSpace=wrap;html=1;backgroundOutline=1;rounded=1;" parent="1" vertex="1">
          <mxGeometry x="640" y="370" width="120" height="60" as="geometry" />
        </mxCell>
        <mxCell id="xfdFbjQ47RM0yjO0aCuq-28" value="&lt;font style=&quot;font-size: 18px;&quot;&gt;new appointment&lt;br&gt;&lt;/font&gt;" style="shape=process;whiteSpace=wrap;html=1;backgroundOutline=1;rounded=1;" parent="1" vertex="1">
          <mxGeometry x="840" y="310" width="150" height="80" as="geometry" />
        </mxCell>
        <mxCell id="xfdFbjQ47RM0yjO0aCuq-33" value="" style="edgeStyle=orthogonalEdgeStyle;rounded=0;orthogonalLoop=1;jettySize=auto;html=1;" parent="1" source="xfdFbjQ47RM0yjO0aCuq-30" target="xfdFbjQ47RM0yjO0aCuq-32" edge="1">
          <mxGeometry relative="1" as="geometry" />
        </mxCell>
        <mxCell id="xfdFbjQ47RM0yjO0aCuq-30" value="&lt;font style=&quot;font-size: 14px;&quot;&gt;&lt;font style=&quot;font-size: 18px;&quot;&gt;upcoming and past appointments&lt;/font&gt;&lt;br&gt;&lt;/font&gt;" style="shape=process;whiteSpace=wrap;html=1;backgroundOutline=1;rounded=1;" parent="1" vertex="1">
          <mxGeometry x="840" y="410" width="150" height="80" as="geometry" />
        </mxCell>
        <mxCell id="xfdFbjQ47RM0yjO0aCuq-32" value="Cancel or Reschedule appointments" style="shape=process;whiteSpace=wrap;html=1;backgroundOutline=1;rounded=1;" parent="1" vertex="1">
          <mxGeometry x="855" y="530" width="120" height="60" as="geometry" />
        </mxCell>
      </root>
    </mxGraphModel>
  </diagram>
</mxfile>
